<?xml version="1.0" encoding="UTF-8"?>
<svg xmlns="http://www.w3.org/2000/svg" viewBox="0 0 330.7 483.01">
  <defs>
    <style>
      .cls-1 {
        fill-rule: evenodd;
      }

      .cls-1, .cls-2, .cls-3, .cls-4, .cls-5, .cls-6, .cls-7, .cls-8, .cls-9, .cls-10 {
        stroke-width: 0px;
      }

      .cls-1, .cls-4 {
        fill: #231f20;
      }

      .cls-2 {
        fill: #5e2580;
      }

      .cls-3 {
        fill: #79000e;
      }

      .cls-5 {
        fill: #d11349;
      }

      .cls-6 {
        fill: #91c848;
      }

      .cls-7 {
        fill: #fdb515;
      }

      .cls-8 {
        fill: #fff;
      }

      .cls-9 {
        fill: #0057a4;
      }

      .cls-10 {
        fill: #00823e;
      }
    </style>
  </defs>
  <g id="Layer_1" data-name="Layer 1">
    <g>
      <g>
        <path class="cls-2" d="m107.95,335.2c-7.53,7.5-13.61,16.74-18.91,25.31-4.28,7.61-6.28,12.11-6.35,12.49,1.37.39,8.49,1.2,10.24,1.39,4.95.55,9.83,1.06,10.66,1.23-6.45-2.08-6.66-1.89-9.11-2.7-4.19-1.38-7.07-2.09-6.9-2.47.24-.53,2.58.32,7.82,1.16,5.2.83,10.49,2.12,11.02,2.24-2.02-1.11-3.87-1.86-9.21-4.48-4.81-2.35-7.38-3.46-7.08-3.86.34-.47,3.97.95,9.33,2.46,1.91.54,9.22,3.06,9.26,2.79-1.08-.77-6.15-3.67-10.57-6.6-3.01-2-5.86-3.68-6.44-4.79.32-.31,6.33,2.33,7.78,3,4.74,2.19,6.77,3.21,11.53,5.18-2.6-2.31-5.56-4.53-8.38-6.81-2.81-2.28-7.01-5.79-7.81-6.93,1.57.23,5.76,2.35,7.82,3.46,4.64,2.51,10.35,5.57,11.2,5.91-1.15-1.18-6.7-6.26-8.81-8.15-2.11-1.89-6.12-5.81-6.23-6.09,1.18-.54,6.57,3.52,8.64,4.96,2.85,1.99,7.57,5.3,8.55,5.91-.16-.52-5.42-6.54-6.33-7.62-2.88-3.39-6.03-7.04-5.81-7.34.36-.49,3.74,2.73,5.22,4.01,1.48,1.29,5.33,4.7,8.83,7.69-1.6-2.28-4.06-5.76-6.15-8.98-2.46-3.79-4.64-6.63-4.36-6.86.37-.3,1.95,1.61,3.97,4.02,3.06,3.64,6.9,8.43,7.21,8.69-1.78-2.93-9.16-16.46-10.63-18.21"/>
        <g>
          <path class="cls-10" d="m113.91,369.55c1.01-.43,2.04-.8,3.07-1.14,0-1.1-.07-2.81-.09-3.3-.55.17-3.46.68-3.61.97.22.53.28,2.34.63,3.48"/>
          <path class="cls-10" d="m119.2,367.53c1.31-.4,2.59-.92,3.88-1.38.08-.9-.07-1.76-.03-2.66-1.45.21-2.84.76-4.28,1.07.06,1,.35,1.97.43,2.97"/>
          <path class="cls-10" d="m114.72,375.84c.86-.28,1.69-.68,2.56-.94.01-1.39-.19-2.73-.15-4.12-1.01.2-1.99.51-3.01.7.18,1.46.44,2.89.6,4.35"/>
          <path class="cls-10" d="m120.16,373.75c1.08-.3,2.12-.78,3.18-1.13.1-1.14-.13-2.21-.06-3.34-1.24.14-2.4.66-3.63.83.13,1.22.39,2.42.52,3.64"/>
          <path class="cls-10" d="m125.5,365.24c1.38-.39,2.72-.98,4.09-1.42.07-.74-.07-1.42,0-2.16-1.48.35-2.92.83-4.4,1.15-.02.84.29,1.6.31,2.43"/>
          <path class="cls-10" d="m115.63,382.5c.69-.21,1.35-.49,2.02-.76,0-1.42-.17-2.8-.2-4.21-.82,0-1.56.4-2.37.47.08,1.53.41,2.99.55,4.51"/>
          <path class="cls-10" d="m126.54,371.45c1.1-.43,2.2-.82,3.3-1.23.06-.89-.08-1.73-.06-2.62-1.26.2-2.48.65-3.74.88.17.99.26,1.99.49,2.97"/>
          <path class="cls-10" d="m121.15,380.4c.85-.24,1.68-.65,2.53-.9,0-1.17-.12-2.33-.13-3.5-1,.07-1.93.48-2.91.65.11,1.26.41,2.49.51,3.75"/>
          <path class="cls-10" d="m127.49,378.06c.9-.29,1.79-.69,2.7-.97-.01-.94-.12-1.87-.1-2.82-1.02.22-2.02.53-3.04.75.13,1.02.34,2.02.44,3.04"/>
          <path class="cls-10" d="m201.51,296.94c-4.55-5.43-10.32-9.74-17.23-12.66l.14-.39c10.27-4.2,17.99-2.09,19.76-1.34.39,3.02,1.3,8.23,3.81,6.21,1.05,1.86,5,5.32,8.05,4.05,2.27,2.29,5.51,4,7.22,1.23,2.75,2.7,7.02,1.13,7.04.11,1.23.68,4.18,2.97,5.8.29,2.44.41,4.79-.48,5.27-.93-1.12-3.58-6.8-7.63-6.8-7.63,1.46-1.97-1.08-4.74-5.91-4.19-.76.09-.7-.82-.7-.82-.85-4.46-7.2-1.67-7.04-2.19.16-.52-.11-1.12-.11-1.12-1.5-2.57-9.01.45-9.01.45.07-3.6-7.31,1.37-7.31,1.37-2.47-.25-4.45-.33-6.04-.3l13.49-7.76,1.79.46c9.51,2.86,7.94-1.07,7.94-1.07,2.75.71,7.44-1.14,7.44-1.14,2.45-.4,2.09-4.09,2.09-4.09,3-.56,5.23-3.31,5.23-3.31,2.12-1.95.3-2.83.3-2.83,3.59-2.3,2.44-5.65,2.44-5.65,1.96-2.96,1.3-6.63,1.3-6.63-3.33-.44-7.46,1.77-7.46,1.77-.59-.75-2.17-.75-2.17-.75-1.98.46-4.91,3.3-4.91,3.3.07-1.57-1.91-.37-1.91-.37-2.1.73-4.21,3.57-4.21,3.57-.52-.7-1.44-.95-1.44-.95-2.89,2.57-4.14,7.5-4.14,7.5-1.23-1.85-1.88-.1-1.88-.1-.88,1.71-1,6.67-1,6.67l-.21,1.26-15.68,8.71c2.5-2.83,2.93-4.63,2.93-4.63,3.68-.75,8.38-4.58,8.38-4.58,1.05-.97-.26-1.26-.26-1.26l-1.29-.09.9-.62c3.73-2.99,3.59-5.84,3.23-5.8-.36.03-1.24.53-1.24.53,1.15-1.26,2.2-2.5,3.18-5.48.98-2.97-.37-2.75-.37-2.75.86-2.37-.64-3.53-.64-3.53-.75-.18-1.5-.02-1.5-.02.89-2.77-.35-6.87-.35-6.87-.05-3-.7-2.59-.95-2.12-.82,1.32-2.14,1.93-2.14,1.93-3.77,1.5-5.52,5.3-5.52,5.3-.07-.67-.29-.74-.29-.74-4.83,1.5-4.4,5.88-4.4,5.88-.97-1.25-1.79-.99-1.79-.99-1.8,2.18-.48,8.1-.48,8.1-.81-.69-1.53-.43-1.53-.43-.77,1.8,1.38,6.49,1.38,6.49-3.21-.38,2.96,6.86,2.96,6.86-9.03,12.59-23.53,5.69-38.67,9.05.97-1.6,1.49-2.55,3.02-5.55.95-1.18,1.67.09,1.95,1.17.5,1.98,2.18-3.15.21-5.49.61-1.25,3.67-7.34,4.09-8.28-2.16-.53-.87.87-4.23-.15-1.71,3.16-6.63,12.38-7.3,13.54-3.11,5.34-7.44,7.31-8.8,8.38-.98-.57-4.05-1.97-6.1-1.86-2.67.15,2.11,1.85,1.77,4.89-3.01,1.98-9.33,7.52-9.96,9.56.33-34.9-12.13-51.68-27.65-64.44,11.34,16.61,14.02,46.44,14.43,64.84-11.86-25.04-36.68-29.27-38.57-29.47,20.21,17.24,32.18,40.29,38.14,49.49-31.92-24.03-44.97-.04-45.88.89,4.04-2.21,22.72-8.71,48.19,13.96,5.25,23.78,27.83,36.36,45.47,36.76-2.49,1.87-5.55,3.52-8.85,4.76-2.3-.19-3.36-1.59-3.36-1.59-.1,1.32-.81,3.07-3.96,3.51-2.67.37-5.01-1.35-5.34-2.04-1.29,2.41-2.84,2.31-4.27,1.61-1.53-.88-1.48-2.72.19-4.96-.81-.25-1.61.04-2.11.35,0-.33-.04-.66-.06-.99,1.91-4.14.13-6.21.13-6.21-.46.81-1.91.64-1.88.1.17-2.94-1.61-4.62-1.61-4.62.15.74-.12,1.3-.42,1.66-4.63-5.36-11.11-5.98-15.17-5.08.15.73.8,1.35.9,2.09-.73.31-1.5.47-2.28.52.26,1.24.55,2.48.76,3.74,1.49-.49,2.98-1.03,4.47-1.53.11-1.09-.03-2.13.04-3.21.39-.15.85,0,1.28.07.21.5.46,2.11.62,2.5,1.21-.46,2.42-.91,3.67-1.23.54.35,2.52,1.36,2.86,1.96.31.54.03,1.08.35,1.55.31-.16.63-.27.95-.33,1,1.1,1.71,2.25,2.29,3.43-.87.32-1.76.51-2.65.71,0,.78.26,1.51.29,2.28,1.02-.28,2-.75,3.01-1.06.61,1.44.6,3,.63,4.55-.98.36-2.01.46-2.98.84.12.77.27,1.54.33,2.32.77-.25,1.52-.59,2.3-.82-.4,2.78-2.94,6.58-5.34,8.15-.18-.76-.15-1.58-.16-2.38-.8.1-1.56.41-2.35.54.08,1.03.29,2.03.44,3.05-1.41.76-2.9,1.1-4.4,1.34-.22-1.04-.15-2.13-.22-3.2-.78.01-1.49.37-2.25.48.06.94.29,1.84.38,2.77-.74.08-3.67-.37-4.05-.71-.26-.24-.03-.75-.11-1.09-.57.11-1.12.32-1.7.38-.88-.43-2.04-1.16-2.76-1.83-.25-1.28-.25-2.61-.33-3.93-.89.07-1.72.46-2.62.48-.32-.36-.39-.76-.7-1.12,1.02-.52,2.06-.9,3.11-1.3.04-1.59-.23-3.12-.23-4.71-1.19.28-2.39.54-3.54.95.2.66.38,1.33.52,2.02-.9-.03-1.8-.06-2.69-.05.31,3.51,4.73,12.35,14.74,12.81-.02.48-.18,1.34-1.12,1.8,0,0,2.86.38,4.79-1.65,0,0,1.33.75.92,1.68,3.56-.29,4.87-4.57,5.65-4.95-.03.55.11,1.9,1.02,2.4.43-2.85,2.03-5.36,3.32-5.41,1.29-.05,3.81,1.45,4.38,3.29,4.04-4.95,8.99-2.31,9.79-.28.57-1.91,5.14-6.13,9.06-1.93.22-1.52,1.29-2.79,2.19-3.68,8.95-3.43,15.1-9.59,15.96-9.98.9-.42,1.95-.48,3-.88-1.11,1.23-15.92,15.79-19.89,22.2-1.76,2.86-5.85,10.78-7.34,20.69-.61,4.06-.8,8.25-2.17,11.84-1.14,2.97-2.55,9.67-13.53,14.55,11.76-7.45,12.77-23.41,13.3-26.25.53-2.83,1.86-15.58,12.12-27.49-5.46,3.12-12.45,6.08-17.35,7.12,4.68.44,6.24,1.76,6.48,2.91,1.14,5.4-13.83,9.95-16.43,11.48,9.38-.22,10.41,3.5,10.18,5.07-.73,4.92-12.64,12.24-13.07,12.78,1.73.04,8.41-.98,9.85.52,1.92,2.02-2.59,7.68-4.31,9.02-6.3,4.91-11.83,9.87-28.94,9.28,8.91,2.41,26.36,2.41,35.63-2.61-1.05,4.58-.57,10.89.2,15.4,1.5-3.6,11.77-17.66,9.65-31.16,1.57,1.27,4.2,4.39,9.78,7.29-.62-2.24-4.85-17.4-2.21-31.68.53.42,2.05,3.68,5.06,5.94-2.13-14.2,4.9-31,22.96-41.9-2.58,5.74-24.15,54.69,6.62,73.36-5.38-1.39-33.82-11.08-13.8-64.76-3.74,6.67-6.98,13.98-8.69,22.72-.86,4.37-4.17,22.25,8.73,36.45,2.49,2.75,5.85,9.11,34.28,12.98-33.33-5.47-32.12-41.12-31.71-47.93,1.28-21.42,10.71-36.7,10.97-37.07,10.63-9.74,13.31-19.92,14.32-25.56,0,0,4.46,6.55,4.46,17.04v3.79h3.86s-.1-4.17-.1-4.17c0-8.2-.68-19.82-7.67-27.2-1.92-12.03-6.24-20.74-8.63-23.69,8.12,1.69,36.68,8.68,45.12,38.99-8.1-17.95-26.21-28.99-34-31.43,11.86,6.91,31.14,24.25,37.75,53.5,7.41-52.1-25.79-63.05-50.5-63.11Zm-77.68,38.18c-.75-1.58-1.17-3.34-1.48-5.2-.33-1.94-.47-4-.36-6.26.18-3.92,1.42-7.6,2.86-10.47,1.53-3.04,3.4-5.37,6.16-7.21,2.35-1.56,5.29-2.55,8.86-2.83,2.47-.2,5.15-.02,7.28.49-9.06.08-15.26,3.22-19,8.73-1.83,2.69-3.22,6-3.95,9.91-.7,3.72-.96,8.56-.36,12.84Zm71.18,15.8c-8.52,8.78-20.69,13.3-27.76,12.03-5.99-1.08-10.86-7.06-13.72-11.44-7.02-10.76-8.81-21.34,2.77-28.56-13.99,15.08,1.72,31.46,4.7,34.8-2.29-6.31,2.08-11.73,4.05-14.61-14.26,6.89-5.52-7.97.99-13.6-10.44,5.44-10.54-4.08-.58-13.45,1.64-1.45,3.6-1.65,5.49-2.53-7.91-.37-13.69,2.14-18.6,8.07-.03-2.78,1.56-8.7,5.1-12.19-2.13.45-11.07,4.03-12.88,18.86-1.35-1.23-4.61-7.62-6.22-12-1.64,2.75-.72,16.4,9.09,29.03-1.25.04-7.45-.12-8.63-.16,1.45,1.71,19.9,12.83,18.93,16.52-.12.45-1.89-.07-2.6-.28-16.51-4.73-36.47-29.64-17.75-52.37-3.63,1.89-10.88,6.9-9.81,23.34-4.47-10.57-.44-32.71,29.31-24.95-16.78-11.22-27.86-2.48-29.57-.91-3.44,3.15-5.88,7.51-7.08,12.91-.61,2.72-.89,5.96-.63,9.15.07.78.15,1.53.3,2.47-1.64-1.57-22.8-21.98-43.94-14.77,2.96-1.98,18.41-9.25,42.51,9.31,0-.47.02-.85.03-1.38-2.03-2.06-20.46-18.02-37.33-11.07,2.08-1.96,15.89-9.35,37.66,7.5.08-1,.33-1.92.53-2.8-10.36-21.63-22.86-35.27-28.86-40.86,1.82.87,14.32,8.15,30.29,36.11.33-.88.63-1.58.85-2.07-9.24-17.19-20.56-28.9-25.7-33.79,3.44,1.59,15.09,10.48,27.46,30.74.26-.25.65-.83.88-1.09-1.43-1.62-2.36-3.77-3.54-5.66.59-34.01-7.12-50.8-7.64-52.94,8.76,11.75,11.29,42.68,11.47,58.11.35-.23,1.33-1.47,1.93-2.01.22-32.41-7.5-49.6-9.13-53.02,3.42,4.2,10.85,17.07,12.85,50.43,5.15-2.38,8.23-1.8,8.6-1.89,1.65-1.7,7.87-8.11,17.6-10.7,1.29.56,2.1.64,2.47,2.69.47,2.59,2.43-1.1,3.57-3.91,43.76-2.99,35.21,44.02,7.87,40.79,12.01,7.02,21.64,1.83,24.57-.65,3.05-2.59,8.09-9.18,2.8-24.81,15.56,22.99,2.2,42.56-2.7,47.6Z"/>
        </g>
        <g>
          <path class="cls-7" d="m216.37,366.03c-.47,2.92-4.06,5.24-6.29,5.02-.24.66-.69,1.55-.87,2.56,2.67,1.69,3.76,5.53,2.57,8.11.52.92,1.55,1.45,2.48,2,2.68-3.45,8.16-1.47,9.07-.29.41-.15,1.82-1.32,2.56-2.19-1.07-1.19-1.76-6.29,1.65-8.76-.21-.99-.66-1.78-1.2-2.51-3.52.48-6.18-1.86-7.16-4.17-1.02-.02-1.94.08-2.82.23"/>
          <path class="cls-9" d="m213.76,364.95c.67-.36,1.46-.6,2.19-.89.17-1.54.47-3.6.71-5.29.1-.68.03-1.4.26-1.9.2-.44.83-.64,1.23-.57.69.11.86.82,1,1.56.4,2.04.94,3.94,1.32,5.91.73.15,1.53.24,2.11.51.59-.5.98-1.24,1.48-1.95.45-.64.95-1.31,1.37-2.02.87-1.46,1.93-3,2.23-4.67.12-.69.11-1.36-.1-1.88-.38-.89-1.6-1.76-2.94-2.05-1.38-.29-2.73-.13-4.04-.36-1.12-.19-2.21-.83-2.97-1.18-1.14,1.02-2.88,1.43-4.72,1.68-1.83.23-3.57.58-4.51,1.87-.38.51-.58,1.48-.41,2.29.38,1.74,1.51,3.27,2.55,4.75,1.05,1.51,2.29,2.89,3.24,4.18m13.01,1.62c.62.59,1.3,1.42,1.79,1.94,1.54-.25,3.47-.38,5.2-.7.63-.11,1.23-.35,1.77-.18.5.18.76.79.62,1.35-.14.59-.77.75-1.33,1.04-1.56.79-3,1.69-4.51,2.45.23.96.41,1.96.31,3.18,2.53.67,5.42,1.84,8.43,1.97,1.18.05,2.51-.22,3.14-1.02.45-.56.66-1.35.74-2.08.27-2.61-1.79-5.21-.63-8.05-1.28-.97-2.24-2.19-3-3.75-.75-1.53-1.31-3.09-2.81-3.85-1.76-.87-3.25.24-4.33,1.25-1.97,1.85-3.62,4.54-5.38,6.44m-31.86,1.35c.22.84.45,1.68.43,2.67-.03,1.32-.51,2.67-.63,3.96-.21,2.01.54,4.15,2.64,4.41,1.8.23,3.93-.52,5.4-.96,1.71-.51,3.26-1.23,4.72-1.74-.12-.71-.01-1.6.09-2.5-1.8-.67-3.48-1.45-5.37-2.24-.65-.27-1.29-.47-1.42-1.02-.1-.48.22-1.19.66-1.33.45-.14,1.22.04,1.92.08,1.74.09,3.95.17,5.63.29.34-.61.68-1.21,1.16-1.64-1.36-2.04-3.28-4.54-5.23-6.43-.85-.81-1.55-1.53-2.85-1.81-1.35-.28-2.46.69-3.15,1.6-.51.7-.83,1.51-1.17,2.39-.69,1.77-1.58,3.32-2.83,4.26m34.63,12.69h-.12c-.5.74-.89,1.62-1.51,2.22.7,1.25,1.49,2.86,2.24,4.31.27.51.68.94.61,1.52-.08.58-.58.97-1.15.93-.54-.04-.98-.52-1.36-.9-1.15-1.12-2.28-2.21-3.4-3.26-.95.44-1.87.91-2.97,1.15-.02,1.98,0,3.88.22,5.79.25,2.22.67,5.08,3.06,5.45,2.27.35,3.74-1.13,5.28-2.03,1.16-.67,2.32-1.15,3.86-1.18.65-3.57,4.59-4.44,5.27-7.56.6-2.75-2.02-3.83-4.08-4.62-1.95-.74-3.84-1.34-5.93-1.83m-24.7,15.15c2.92-.29,4.76,1.8,6.86,2.45,1.53.48,3.37.2,4.12-.92.36-.53.62-1.37.75-2.14.46-2.7.25-6.24.05-8.51-1.08-.16-1.93-.5-2.7-.92-1.06,1.1-2.27,2.5-3.36,3.8-.46.55-.78,1-1.27,1.04-.75.05-1.2-.47-1.25-.89-.07-.54.34-1.27.52-1.7.55-1.28,1.04-2.45,1.62-3.86.11-.27.32-.62.31-.79-.01-.27-.36-.56-.61-.87-.34-.44-.54-.71-.76-1.07-.07-.02-.1,0-.12.05-2.37.68-4.96,1.55-7.1,2.71-.72.38-1.49.82-2,1.31-.6.58-1.11,1.42-.91,2.6.4,2.29,2.46,3.25,3.94,4.77.89.91,1.47,1.82,1.93,2.94"/>
        </g>
        <g>
          <path class="cls-10" d="m151.03,230.76h0c-2.71-1.81-5.24-4.03-7.2-7.46-3.13.88-6.61,1.74-9.77,3.3,2.82,3.89,4.66,4.97,6.81,7.38,3.64-1.79,6.94-2.95,10.16-3.22Z"/>
          <path class="cls-10" d="m176.98,232.26h0c3.25.06,6.59.56,10.08,2.39,2.16-2.43,4.62-5.04,6.44-8.06-4.47-1.76-6.61-1.66-9.72-2.53-2.1,3.47-4.25,6.23-6.81,8.19Z"/>
          <path class="cls-10" d="m173.33,247.52h0c.61,3.19.81,6.56-.25,10.36,2.82,1.61,5.89,3.48,9.21,4.63.79-4.74.26-6.81.46-10.03-3.83-1.33-6.97-2.87-9.43-4.96Z"/>
          <path class="cls-10" d="m164.23,223.12h0c1.08-3.07,2.61-6.07,5.44-8.82-1.62-2.81-3.33-5.97-5.62-8.65-3.08,3.69-3.66,5.75-5.46,8.43,2.63,3.08,4.57,6,5.63,9.04Z"/>
          <path class="cls-10" d="m155.97,247.63h0c-2.68,1.84-5.69,3.35-9.6,3.89-.36,3.23-.85,6.79-.59,10.3,4.66-1.16,6.35-2.47,9.39-3.57-.3-4.04-.14-7.54.8-10.62Z"/>
          <path class="cls-5" d="m172.96,263.48h0,0Zm20.45-24.94h0s0,0,0,0h0Zm-.4-5.9c-1.17-1.93-3.2-3-5.3-2.79,0,0-1.61.15-1.61.15l-4.41.5-.8.12.49-.22,3.83-1.94,1.54-.81c1.87-.98,2.97-2.99,2.88-5.26-.09-2.06-1.63-3.83-2.96-5.13-1.28-1.28-2.67-2.36-3.73-3.16,0,0-1.86-1.45-1.86-1.45-2.13-1.69-3.97-3.15-6.58-4.22-2.24-.94-4.11-1.07-5.69-.41-1.4.59-2.46,1.75-3.14,3.47-.79,1.94-1.01,3.92-1.2,5.68l-.06.56c-.1-.55-.77-4.1-.77-4.1l-.36-1.71c-.42-2.07-2.05-3.69-4.26-4.23-1.98-.49-4.11.47-5.75,1.36-1.55.84-2.95,1.82-4.11,2.66l-1.95,1.38c-2.23,1.55-4.16,2.89-5.94,5.06h0c-1.54,1.9-2.2,3.64-2.01,5.34.17,1.51,1,2.85,2.47,3.99,1.63,1.27,3.46,2.04,5.08,2.72l.3.13-4.17-.47-1.63-.15c-2.1-.21-4.14.86-5.31,2.79-1.06,1.76-.77,4.07-.39,5.89.36,1.75.88,3.35,1.35,4.69,0,0,.73,2.21.73,2.21.84,2.59,1.56,4.83,3.13,7.17,1.36,2.02,2.83,3.16,4.51,3.48,1.49.28,3.02-.1,4.55-1.15h0c1.45-1,2.59-2.25,3.6-3.43l-1.36,2.91-.72,1.62c-.87,1.94-.48,4.2,1,5.92,1.34,1.54,3.63,1.99,5.47,2.21,1.77.21,3.47.22,4.91.2h2.39c2.72.03,5.07.05,7.78-.69,2.36-.64,3.91-1.68,4.75-3.17.43-.78.65-1.64.65-2.58,0-.66-.11-1.36-.32-2.09-.26-.9-.63-1.73-1.03-2.52.63.63,1.32,1.25,2.1,1.79,1.54,1.06,3.08,1.45,4.57,1.16,1.68-.32,3.15-1.46,4.51-3.47,1.57-2.32,2.29-4.55,3.13-7.14l.74-2.24c.63-1.8,1.08-3.33,1.35-4.68.18-.88.35-1.88.35-2.87,0-1.06-.19-2.12-.74-3.03Zm-19.37,4.6c-.36,2.03-1.37,3.9-2.87,5.28l-.73.67-1.17.69c-1.32.71-2.75,1.09-4.24,1.12h-.53c-1.5-.02-2.93-.38-4.25-1.05l-.16-.08-1.57-1.38c-1.88-1.75-2.94-4.13-2.99-6.7l.21-2.59.66-1.55c1.37-2.93,4.09-4.92,7.27-5.33l1.04-.13,1.36.14c3.15.41,5.93,2.48,7.26,5.39l.54,1.18.22,1.19c.17,1.09.15,2.15-.04,3.16Z"/>
          <path class="cls-10" d="m159.97,229.43h0c-.58-2.37-.86-4.88-.21-7.76-2.17-1.09-4.54-2.38-7.07-3.11-.41,3.58.07,5.1.04,7.52,2.91.85,5.33,1.88,7.25,3.35Z"/>
          <path class="cls-10" d="m157.69,237.79h0c-2.44-.09-4.92-.52-7.52-1.93-1.65,1.79-3.54,3.71-4.94,5.94,3.33,1.38,4.93,1.34,7.24,2.03,1.62-2.57,3.27-4.61,5.21-6.04Z"/>
          <path class="cls-10" d="m164.65,243.95h0c-.82,2.29-1.98,4.54-4.12,6.58,1.2,2.11,2.46,4.49,4.17,6.51,2.32-2.75,2.77-4.29,4.13-6.29-1.96-2.32-3.4-4.51-4.18-6.8Z"/>
          <path class="cls-10" d="m172.05,238.11h0c1.88,1.55,3.6,3.4,4.8,6.1,2.4-.42,5.06-.8,7.54-1.72-1.81-3.12-3.1-4.06-4.52-6.02-2.85,1.06-5.4,1.67-7.81,1.63Z"/>
          <path class="cls-10" d="m167.65,228.53h0c2.18-1.09,4.57-1.91,7.52-1.92.59-2.36,1.32-4.95,1.48-7.59-3.58.39-4.96,1.19-7.33,1.7-.19,3.03-.66,5.61-1.67,7.81Z"/>
          <path class="cls-7" d="m170.89,240.11c-2.55,3.6-7.57,4.44-11.2,1.86-3.63-2.57-4.49-7.57-1.95-11.17,2.55-3.61,7.56-4.44,11.19-1.87,3.63,2.57,4.5,7.58,1.95,11.18Z"/>
          <path class="cls-3" d="m142.49,233.65s-4.6.9-2.64,5.14c0,0,1.73,2.93,1.89,3.53,0,0,1.58,3.47,1.73,5.02.15,1.55,1.73,3.65,5.05,3.35,0,0-4.37-.96-4.22-3.88.15-2.93-.53-5.14-3.01-7.47,0,0-2.94-3.82,1.21-5.68Z"/>
          <path class="cls-3" d="m155.72,255.92s-.74,4.63,3.92,4.24c0,0,3.34-.62,3.96-.56,0,0,3.8-.29,5.31.1,1.51.39,4.02-.37,4.88-3.59,0,0-2.4,3.78-5.1,2.63-2.7-1.15-5.01-1.27-8.05.26,0,0-4.6,1.45-4.92-3.08Z"/>
          <path class="cls-3" d="m180.88,251.39s4.21,2.05,5.2-2.52c0,0,.37-3.38.61-3.95,0,0,.82-3.72,1.63-5.05.81-1.33.8-3.96-2.02-5.71,0,0,2.92,3.39,1.04,5.64-1.88,2.25-2.67,4.42-2.08,7.78,0,0,.05,4.82-4.37,3.81Z"/>
          <path class="cls-3" d="m182.49,225.71s3.73-2.83.1-5.78c0,0-2.85-1.86-3.25-2.34,0,0-2.95-2.42-3.77-3.74-.82-1.33-3.16-2.51-6.01-.78,0,0,4.35-1.07,5.5,1.63,1.15,2.7,2.74,4.38,6,5.38,0,0,4.32,2.14,1.42,5.63Z"/>
          <path class="cls-3" d="m160.62,214.27s-1.97-4.25-5.62-1.33c0,0-2.43,2.38-2.97,2.67,0,0-2.99,2.36-4.46,2.88-1.47.52-3.13,2.55-2.04,5.7,0,0-.12-4.47,2.76-5.03,2.88-.55,4.87-1.74,6.54-4.71,0,0,3.01-3.77,5.8-.19Z"/>
          <path class="cls-8" d="m182.41,234.58h0c-.26-1.74-.88-3.11-1.59-4.7l-.64-1.45-1.38-2.82c-.84-1.42-1.6-2.17-2.44-2.44-1.2-.37-2.43-.07-3.21.78,0,0-.79.86-.79.86l-1.39,1.57,1.08-2.24.5-1.08c.48-1.05.28-2.3-.52-3.26-.73-.87-2.09-1.16-3.2-1.31,0,0-3.13-.19-3.13-.19l-1.58-.03c-1.74-.05-3.24-.09-4.95.35-1.39.36-2.3.93-2.78,1.76-.41.72-.48,1.6-.19,2.61.26.93.69,1.77,1.13,2.54l-.63-.71-.79-.86c-.78-.85-2.01-1.15-3.21-.78-1.09.33-1.88,1.48-2.45,2.44l-1.38,2.82-.64,1.44c-.72,1.59-1.34,2.96-1.6,4.7-.21,1.42-.03,2.48.55,3.24.5.66,1.29,1.06,2.34,1.19,1.27.16,2.47-.01,3.63-.18l.73-.1s.99-.13.99-.13l.11-.02-1.34.8-2.3,1.49-.97.66c-.96.64-1.43,1.81-1.25,3.06.17,1.12,1.18,2.08,2.05,2.78,0,0,2.58,1.79,2.58,1.79l1.33.85c1.46.95,2.73,1.76,4.41,2.28,1.37.42,2.45.4,3.29-.06.73-.4,1.24-1.12,1.52-2.13.1-.37.17-.74.22-1.11.05.38.12.76.22,1.14.28,1.01.79,1.73,1.52,2.13.84.46,1.91.48,3.29.06,1.68-.51,2.95-1.33,4.41-2.27l1.34-.85,2.58-1.79c.86-.7,1.88-1.66,2.05-2.78.19-1.25-.29-2.42-1.24-3.06,0,0-.98-.66-.98-.66l-2.3-1.49-1.42-.85h.11s1.11.16,1.11.16c0,0,.73.1.73.1,1.16.17,2.36.34,3.63.18,1.04-.13,1.83-.53,2.33-1.19.58-.76.76-1.82.54-3.24Zm-17.28,7.72l-.62.07-.69-.04c-2.6-.18-4.9-1.86-5.87-4.28l-.24-.6-.04-.28-.21-1.66c0-2.08.93-4.02,2.56-5.33l.32-.26.48-.29c1.06-.63,2.26-.96,3.48-.96,1.32,0,2.61.38,3.73,1.11l.4.26.39.34c1.48,1.3,2.33,3.17,2.33,5.13l-.22,1.76-.22.63c-.9,2.4-3.03,4.08-5.57,4.39Z"/>
        </g>
        <path class="cls-6" d="m198.03,269.04c1.45-1.26,4.52-10.83,4.52-10.83,2.86-7.22,1.78-11.69,1.78-11.69-.14,1.86-.5,3.72-.91,5.35-.74-1.13-1.98-4.32-1.98-4.32-.09,1.94,1.22,5.1,1.56,5.87-.68,2.31-1.35,3.89-1.35,3.89-.85-.56-2.95-4.59-2.95-4.59-.07,2.79,2.66,5.56,2.66,5.56-.51,2.4-1.55,4.65-1.55,4.65-1.18-.63-2.81-4.09-2.81-4.09.38,2.78,2.42,5.25,2.42,5.25-.45,1.58-2.03,4.48-2.03,4.48-.22.29-.8,1.75.65.48Z"/>
        <path class="cls-6" d="m215.66,267.39s2.44-2.37,3.91-3.31c0,0,3.29.88,6.31.22,0,0-4.17-.17-5.25-.96,0,0,1.95-1.68,4.24-2.96,0,0,3.86,1.35,6.73.31,0,0-4.93-.37-5.83-.9,0,0,1.39-1.13,3.54-2.52.93.02,4.67.02,6.65-.74,0,0-3.76.06-5.19-.17,1.54-.92,3.32-1.88,5.2-2.66,0,0-5.02.65-11.46,5.63,0,0-8.8,5.99-9.58,7.67-.78,1.68.51.67.73.38Z"/>
        <path class="cls-6" d="m220.38,284.92s-11.21-3.66-13.37-3.28c-2.15.38-.38.84.05.85,0,0,3.82.58,5.63,1.23,0,0,1.08,3.29,3.52,5.41,0,0-2.3-3.59-2.15-4.98,0,0,2.84.59,5.48,1.72,0,0,.93,4.05,3.67,5.81,0,0-2.54-4.35-2.54-5.42,0,0,1.95.47,4.62,1.4.54.78,2.75,3.92,4.68,5.1,0,0-2.29-3.1-2.91-4.45,1.84.72,3.86,1.62,5.75,2.71,0,0-3.62-3.8-12.43-6.11Z"/>
      </g>
      <path class="cls-1" d="m165.32,203.43c66.99-.17,97.65,64.15,97.65,107.8,0,80.13-55.28,111.64-57.3,112.91.93,0,73.25,0,74.84,0,.24,0,.42-.29.69-.55,4.16-3.96,19.56-21.63,29.77-45.04-2.19,0-5.35,0-7.89,0-.15,0-.39-.05-.49.07-.06.13-.13.27-.2.39-16.7,29.94-50.31,37.32-71.76,36.45,110.88-87.91,37.15-219.58-65.32-219.58S-10.88,327.54,100,415.45c-21.45.87-55.06-6.51-71.76-36.45-.07-.12-.13-.26-.2-.39-.11-.12-.34-.07-.49-.07-2.54,0-5.7,0-7.89,0,10.2,23.41,25.61,41.07,29.77,45.04.27.26.45.55.69.55,1.59.01,73.91,0,74.84,0-2.02-1.26-57.3-32.77-57.3-112.91,0-43.65,30.66-107.62,97.65-107.8Z"/>
      <g>
        <path class="cls-4" d="m16.14,331.35c-1.07.11-1.36.62-1.25,1.77,0,.04.01.11.02.19l.34,2.66c.29,2.51.88,3.24,2.77,3.83,1.2.37,2.19.19,2.27.97.03.26-.25.51-.66.55-.59.06-1.24-.06-1.99-.06h-2.92c-.79,0-1.06-.16-1.15-1.09-.06-.63.02-2.4-.27-5.32l-.99-9.99c-.27-2.74-.69-4.68-.8-5.83-.08-.78.02-.94.75-1.08,2.64-.49,4-.74,4.04-.74.44-.04.69.16.73.53.07.74-1.24.72-2.07,1.36-1.04.82-1.18,2.03-.99,3.99l.32,3.18c.11,1.11.47,1.3,1.5,1.2l17.47-1.75c1.96-.2,2.82-.58,3.29-2.2.42-1.42-.2-2.78.76-2.88.44-.04.74.26.8.89.08.81-.02,2.39.2,4.69.34,3.37.81,5.49.9,6.37.06.56-.1.84-.55.88-.93.09-.78-1.12-1.28-2.34-.55-1.4-1.63-1.74-3.74-1.53l-17.51,1.75Z"/>
        <path class="cls-4" d="m24.11,300.45l1.7-11.22c.13-.85-.19-.97-1.11-1.11l-4.89-.74c-1.99-.3-3.03-.34-3.77,1.05-.59,1.15-.55,2.36-1.35,2.24-.37-.06-.58-.43-.49-.98.09-.59.56-1.99.9-4.23.39-2.57.41-4.19.49-4.74.08-.52.34-.78.64-.73.81.12.33,1.29.93,2.28.6.99,1.52,1.13,3.03,1.36l15.71,2.36c2.1.32,3,.04,3.82-1.38.61-1.07.61-2.54,1.46-2.41.48.07.59.35.5.94-.09.59-.46,2.07-.84,4.54-.46,3.05-.58,4.8-.63,5.13-.07.48-.28.63-.73.57-.81-.12-.38-1.19-1.05-2.23-.68-1-1.66-1.23-3.13-1.45l-6.29-.95c-.92-.14-1.27-.08-1.39.73l-1.7,11.22c-.16,1.03.06,1.1,1.09,1.25l6.33.95c2.1.32,3,.04,3.82-1.38.61-1.07.61-2.54,1.46-2.41.48.07.59.35.5.94-.09.59-.46,2.07-.84,4.54-.46,3.05-.58,4.8-.63,5.13-.07.48-.28.63-.73.57-.81-.12-.38-1.19-1.05-2.23-.68-1-1.66-1.23-3.13-1.45l-15.48-2.33c-1.99-.3-3.03-.34-3.77,1.05-.59,1.15-.55,2.36-1.35,2.24-.37-.06-.58-.43-.49-.98.09-.59.56-1.98.9-4.23.39-2.57.41-4.19.49-4.74.08-.51.34-.78.64-.73.81.12.33,1.29.93,2.29.6.99,1.52,1.13,3.03,1.36l5.08.77c.99.15,1.27.04,1.41-.88Z"/>
        <path class="cls-4" d="m25.33,267.19c-1.86-.75-2.86-1.06-3.9.12-.84.99-1.09,2.21-1.85,1.91-.38-.15-.39-.52-.17-1.07.15-.38.89-1.73,1.89-4.21,2.16-5.39,3.5-9.34,4.46-11.72.21-.52.36-.5,1.02-.24.21.08.44.22.68.31,1.28.51,2.42.65,3.18.95.62.25.83.53.69.88-.25.62-1.04.1-2.29.12-2.3.04-3.09,1.61-4.37,4.82-.96,2.38-1.18,3.34.41,3.97l6.15,2.46c1.24.5,1.45.38,1.92-.79l.75-1.86c.69-1.73.9-2.85.08-3.9-.71-.93-1.64-1.3-1.41-1.88.1-.24.48-.29,1.06-.06.55.22,1.5.76,2.95,1.34,1.76.7,2.93.97,3.35,1.14.59.24.82.57.68.91-.24.59-.86.14-2.2.08-1.69-.08-2.13.71-2.94,2.75l-.86,2.14c-.46,1.14-.06,1.46,1.08,1.91l5.59,2.24c2.69,1.08,3.45.9,4.46-1.62,1.43-3.56,1.39-6.57.12-8.61-.7-1.16-1.45-1.58-1.27-2.03.07-.17.35-.26.69-.12.73.29,2.13,1.29,3.16,2.71,1.3,1.76,1.23,3.22.38,5.36-.55,1.38-1.73,3.52-2.93,6.52-1.31,3.28-1.81,5.12-1.92,5.4-.18.45-.44.59-.85.42-.76-.3-.09-1.28-.5-2.44-.43-1.13-1.35-1.54-2.73-2.09l-14.53-5.82Z"/>
        <path class="cls-4" d="m59.6,242.2c-.61-.24-1.09-.71-1.65-.97-1.76-.77-3.05-1.35-3.78-1.93-.41-.32-.49-.76-.26-1.06.44-.56,1.26.38,2.74.73,3.46.83,6.23.07,7.91-2.07,2.02-2.58,1.64-5.71-.55-7.43-2.28-1.79-4.43-1.16-7.92.88-1.46.84-2.92,1.92-4.81,2.52-2.17.71-4.47.27-6.14-1.04-3.48-2.73-3.92-6.62-1.1-10.22,1.86-2.37,3.91-3.17,4.41-3.82.46-.59-.13-1.28.17-1.66.14-.18.51-.17.86.11.41.32.75.73,1.19,1.08,1.2.94,2.35,1.46,3.11,2.06.44.34.56.73.36.99-.48.61-1.55-.32-3.27-.35-2.45-.08-4.58.9-6.05,2.77-1.58,2.02-1.38,4.59.49,6.06.79.62,1.67.88,2.61.77,1.98-.24,3.82-1.68,6.29-3.2,3.82-2.34,6.93-2.32,10.11.18,3.77,2.96,4.31,7.64.98,11.88-2.11,2.69-4.92,4.04-5.7,3.71Z"/>
        <path class="cls-4" d="m71.21,213.18c2.14,2.57,3.74,4.48,6,5.16,2.21.67,4.48.14,6.56-1.6,1.74-1.45,2.68-3.11,2.94-5.12.38-3.03-1.31-5.35-4.06-8.63l-4.81-5.77c-1.36-1.63-2.21-2.47-3.62-2.31-1.33.14-2.3,1.48-2.87.8-.24-.29-.15-.65.3-1.03.46-.38,1.48-.95,2.8-2.05,1.29-1.07,2.02-1.93,2.39-2.24.37-.31.74-.28.88-.11.45.54-.53,1.17-.52,2.23,0,.98.95,2.36,2.64,4.38l4.03,4.82c2.31,2.77,3.98,5.01,4.38,7.63.52,3.58-.8,6.87-3.89,9.45-2.8,2.34-5.39,3.29-8.1,2.84-2.99-.51-5.1-2.62-7.72-5.76l-5.94-7.11c-1.29-1.54-2.04-1.98-3.56-1.48-1.06.35-1.75,1.22-2.25.62-.24-.29-.12-.67.3-1.03.37-.31,1.71-1.14,3.74-2.83,1.85-1.55,2.77-2.66,3.09-2.92.4-.33.77-.35.96-.13.48.57-.54,1.27-.75,2.13-.23,1.11.63,2.38,2.35,4.44l4.7,5.62Z"/>
        <path class="cls-4" d="m101.92,199.8c.98,1.88,1.73,2.45,3.36,2.28,1.23-.14,2.38-.99,2.77-.23.22.43.06.68-.47.96-.53.27-1.92.83-4.13,1.98-2.74,1.42-4.22,2.36-4.52,2.52-.43.22-.71.16-.92-.24-.38-.73.77-1.03,1.21-2.18.42-1.14-.01-2.05-.7-3.37l-7.2-13.86c-.92-1.78-1.47-2.67-3.03-2.45-1.28.2-2.26.97-2.64.24-.17-.33.04-.73.53-.99.89-.46,2.22-.9,3.83-1.74,1.68-.88,3.46-2.05,5.51-3.11,5.15-2.68,9.35-1.68,11.34,2.15,1.89,3.63.44,8.03-3.75,10.21-1.81.94-2.96,1.08-3.25.52-.15-.3.02-.68.35-.85.46-.24,1.06-.38,1.69-.71,2.57-1.34,3.25-3.83,1.81-6.6-1.87-3.6-5.18-4.81-8.45-3.11-1.78.93-2.02,1.93-1.02,3.84l7.66,14.76Z"/>
        <path class="cls-4" d="m125.3,189.77c.57,2.04,1.19,2.76,2.82,2.92,1.23.12,2.53-.48,2.76.35.13.47-.08.68-.65.84-.54.15-2.05.42-4.48,1.1-2.94.82-4.58,1.43-4.9,1.52-.5.14-.78-.01-.88-.37-.22-.79,1.02-.9,1.66-1.93.64-1.03.41-2.01,0-3.44l-4.18-15.02c-.54-1.93-.88-2.88-2.45-2.98-1.29-.06-2.41.48-2.63-.31-.1-.36.19-.71.73-.86,1.04-.29,2.37-.51,3.98-.96,2.04-.57,4.12-1.42,6.34-2.04,5.37-1.5,8.94.09,10.05,4.07.8,2.87-.18,5.19-3.04,7.38,1.94.85,3.82,3.18,6.75,6.07,2.17,2.1,3.5,3.15,4.76,2.8.54-.15.85-.55,1.1-.62.21-.06.44.07.5.28.2.72-.77,1.95-2.63,2.47-2.11.59-4.1-.17-6.38-2.27-3.21-2.93-5.04-5.5-6.71-6.51-.65-.4-1.47-.29-2.72.06-1.29.36-1.67.66-1.37,1.73l1.59,5.7Zm.29-8.93c3.94-1.1,5.36-2.81,4.41-6.21-1.05-3.76-3.94-5.43-7.52-4.43-1.83.51-2.29,1.22-1.85,2.79l2,7.2c.37,1.33,1.1,1.16,2.96.64Z"/>
        <path class="cls-4" d="m148.91,168.74c-.13-2.01-.28-3.04-1.8-3.46-1.25-.32-2.46-.02-2.52-.84-.03-.41.3-.58.89-.62.41-.03,1.94.06,4.61-.13,5.79-.39,9.93-.89,12.49-1.07.56-.04.6.11.65.81.02.22,0,.49.01.75.09,1.37.46,2.47.52,3.28.04.67-.12.98-.49,1-.67.04-.54-.9-1.1-2.01-1.03-2.06-2.79-2.09-6.24-1.85-2.56.17-3.52.39-3.4,2.09l.44,6.61c.09,1.34.28,1.47,1.55,1.39l2-.14c1.86-.12,2.95-.42,3.54-1.62.53-1.04.46-2.04,1.09-2.09.26-.02.47.3.51.94.04.59-.04,1.68.07,3.24.13,1.89.39,3.07.42,3.51.04.63-.16.98-.53,1-.63.04-.5-.71-1.02-1.94-.66-1.56-1.56-1.61-3.75-1.46l-2.3.15c-1.22.08-1.34.58-1.26,1.8l.4,6.01c.19,2.89.68,3.5,3.39,3.31,3.82-.26,6.53-1.6,7.81-3.62.74-1.13.8-1.99,1.28-2.03.19-.01.39.2.41.57.05.78-.24,2.48-1.07,4.02-1.03,1.93-2.37,2.51-4.67,2.66-1.48.1-3.92-.03-7.14.18-3.52.24-5.4.59-5.7.61-.48.03-.72-.14-.75-.58-.05-.82,1.11-.64,1.99-1.51.83-.88.8-1.88.71-3.37l-1.04-15.63Z"/>
        <path class="cls-4" d="m178.66,173.83c.2-.91.35-1.71.48-2.48.39-2.16.54-3.65.52-4.33,0-1.21-.18-1.73-1.17-2.52-1.13-.88-2.72-.83-2.56-1.71.07-.37.44-.56.99-.47.7.13,1.93.61,3.83.95,1.06.19,1.82.18,2.19.24.29.05.34.4.52,1.08l4.95,19.75c.09.36.2.57.38.6.18.03.44-.11.64-.42l12.53-16.95c.3-.44.54-.51.98-.43.33.06.69.16,1.09.23,1.54.28,2.55.31,3.03.39.51.09.74.32.68.65-.17.91-1.55.21-2.64.81-.79.42-1.13,1.23-1.37,2.59-.02.11-.04.26-.07.4l-2.27,15.73c-.3,2.1-.23,2.95,1.23,3.85,1.05.64,2.52.68,2.37,1.52-.09.47-.37.58-.95.47-.59-.1-2.06-.52-4.4-.94-2.89-.52-4.49-.65-4.86-.72-.48-.09-.66-.31-.58-.75.13-.73,1.27-.56,1.99-1,.76-.47,1.13-1.27,1.36-2.52.04-.22.07-.4.11-.62l1.67-11.57c.11-.81.11-1.26-.21-1.32-.15-.03-.51.29-.96.92l-10.54,14.29c-.35.5-.63.76-.99.69-.37-.07-.49-.43-.65-1.02l-4.33-17.48c-.08-.39-.23-.61-.41-.64-.15-.03-.42.26-.57.88l-1.96,9.21c-.15.65-.27,1.28-.37,1.82-.36,2.01-.38,3.37.43,4.31.88.99,2.3.87,2.13,1.82-.07.37-.38.46-.94.36-.69-.12-1.87-.52-3.62-.84-1.46-.26-2.59-.31-3.28-.44-.48-.09-.66-.31-.59-.71.15-.81,1.36-.4,2.3-1.02,1.03-.68,1.7-2.76,2.5-6.32l1.41-6.36Z"/>
        <path class="cls-4" d="m220.53,178.4c.83-1.83,1.19-2.81.05-3.9-.95-.88-2.16-1.18-1.82-1.93.17-.37.54-.37,1.08-.13.38.17,1.69.97,4.12,2.07,5.29,2.39,9.17,3.91,11.51,4.96.51.23.48.38.19,1.02-.09.2-.23.43-.34.66-.57,1.25-.76,2.39-1.1,3.14-.28.61-.57.8-.91.65-.61-.28-.06-1.05-.02-2.3.06-2.3-1.47-3.16-4.62-4.58-2.34-1.06-3.28-1.32-3.98.24l-2.73,6.03c-.55,1.22-.45,1.43.71,1.95l1.83.83c1.69.77,2.8,1.02,3.89.25.96-.67,1.37-1.59,1.95-1.33.24.11.27.49,0,1.07-.25.54-.83,1.46-1.47,2.89-.78,1.73-1.11,2.89-1.29,3.3-.26.58-.6.79-.94.64-.58-.26-.1-.86.02-2.2.15-1.69-.62-2.16-2.61-3.06l-2.1-.95c-1.12-.51-1.45-.13-1.96.99l-2.49,5.49c-1.2,2.64-1.05,3.4,1.42,4.52,3.49,1.58,6.5,1.68,8.59.5,1.19-.65,1.65-1.38,2.09-1.18.17.08.25.36.09.69-.32.71-1.38,2.07-2.85,3.04-1.82,1.22-3.27,1.09-5.37.14-1.36-.61-3.43-1.88-6.38-3.21-3.22-1.46-5.04-2.04-5.31-2.16-.44-.2-.57-.46-.38-.87.34-.75,1.28-.03,2.46-.4,1.15-.38,1.6-1.28,2.21-2.63l6.47-14.27Z"/>
        <path class="cls-4" d="m260,224.3c2.08.02,3.13-.59,3.6-.16.19.18.16.49-.09.77-.42.47-1.56.9-3.29.99-3.57.19-6.93-1.03-9.69-3.52-5.52-4.98-5.82-12.2-.56-18.04,2.91-3.24,6.64-5.04,10.64-5.14,3.02-.08,5.95,1.05,8.47,3.32,1.16,1.05,2.18,2.41,2.97,3.98.53,1.08.73,1.96,1.23,2.41.61.55,1.61-.4,2.05,0,.63.57-.16,1.06-1.23,2.59-1.25,1.78-1.81,3.18-2.33,3.76-.32.36-.72.41-.99.16-.39-.35-.02-.92.17-1.8.86-4.23-.21-7.76-3.14-10.4-3.64-3.28-9.22-2.59-13.58,2.25-5.13,5.7-5.33,12.48-1.05,16.33,1.88,1.69,4.08,2.47,6.85,2.51Z"/>
        <path class="cls-4" d="m295.58,240.92c-.67,3.27-2.7,6.2-5.82,8.29-3,2.01-6.45,2.8-9.64,2.39-3.97-.52-7.25-2.61-9.43-5.86-2.26-3.37-3.03-7.06-2.33-10.43.7-3.24,2.77-6.29,5.9-8.38,2.35-1.58,5.01-2.42,7.78-2.44,4.64-.02,8.6,2.07,11.24,6.02,2.28,3.4,3.06,6.85,2.31,10.4Zm-9.48,5.91c3.25-2.18,5.53-5.05,6.66-8.31.95-2.74.63-5.34-.98-7.76-3.02-4.51-8.24-5.22-13.65-1.59-3.49,2.34-5.83,5.21-7.1,8.79-.81,2.33-.46,5.06,1.07,7.34,3.04,4.54,8.48,5.24,14.01,1.53Z"/>
        <path class="cls-4" d="m294.19,262.39c-3.15,1.15-5.49,2-6.9,3.9-1.39,1.85-1.65,4.16-.73,6.71.78,2.13,2.01,3.58,3.81,4.51,2.72,1.38,5.48.58,9.5-.89l7.06-2.57c1.99-.72,3.07-1.24,3.4-2.62.32-1.3-.61-2.66.23-2.97.35-.13.66.08.86.63.2.56.39,1.72.97,3.33.57,1.57,1.13,2.56,1.29,3.01.17.46,0,.79-.2.87-.66.24-.92-.89-1.92-1.24-.91-.34-2.54.09-5.02,1l-5.91,2.15c-3.39,1.23-6.06,2.05-8.67,1.53-3.55-.72-6.19-3.09-7.56-6.86-1.24-3.42-1.26-6.19.09-8.58,1.49-2.64,4.2-3.9,8.05-5.3l8.7-3.17c1.89-.69,2.55-1.25,2.61-2.85.03-1.12-.55-2.05.19-2.32.35-.13.67.11.87.63.16.45.49,2,1.39,4.48.82,2.27,1.55,3.51,1.69,3.89.18.49.07.85-.21.95-.7.26-1.01-.94-1.74-1.42-.97-.6-2.45-.22-4.97.7l-6.89,2.51Z"/>
        <path class="cls-4" d="m296.21,294.95c-2.1.27-2.9.78-3.3,2.37-.3,1.2.1,2.57-.75,2.68-.48.06-.66-.18-.73-.77-.07-.55-.11-2.08-.43-4.59-.38-3.03-.75-4.74-.79-5.07-.06-.52.13-.77.5-.81.81-.1.74,1.14,1.67,1.93.92.78,1.93.69,3.4.51l15.47-1.95c1.99-.25,2.98-.45,3.31-1.99.25-1.27-.12-2.46.69-2.56.37-.05.67.29.74.84.13,1.07.15,2.42.36,4.08.26,2.1.8,4.28,1.09,6.57.7,5.53-1.4,8.83-5.5,9.35-2.95.37-5.1-.93-6.85-4.08-1.12,1.79-3.71,3.32-7,5.79-2.39,1.84-3.63,3.01-3.47,4.3.07.55.41.92.45,1.18.03.22-.13.43-.36.46-.74.09-1.82-1.04-2.06-2.96-.27-2.18.77-4.03,3.19-5.99,3.37-2.75,6.18-4.19,7.42-5.7.49-.58.5-1.41.34-2.7-.17-1.33-.41-1.75-1.52-1.61l-5.87.74Zm8.79,1.59c.51,4.06,1.99,5.71,5.5,5.27,3.88-.49,5.95-3.11,5.48-6.8-.24-1.88-.87-2.44-2.49-2.23l-7.42.94c-1.37.17-1.31.92-1.07,2.83Z"/>
        <path class="cls-4" d="m314.95,326.63c1.07.09,1.45-.37,1.54-1.51,0-.04,0-.11.02-.19l.15-2.67c.17-2.52-.28-3.34-2.04-4.27-1.11-.58-2.12-.59-2.05-1.36.02-.26.34-.46.74-.42.59.05,1.21.29,1.94.42l2.87.53c.77.14,1.02.34.94,1.27-.05.63-.46,2.35-.7,5.28l-.83,10.01c-.23,2.74-.17,4.73-.26,5.87-.06.78-.19.92-.94.93-2.69,0-4.07,0-4.11,0-.45-.04-.65-.28-.62-.65.06-.74,1.35-.49,2.28-.97,1.17-.61,1.53-1.78,1.69-3.74l.27-3.19c.09-1.11-.22-1.36-1.26-1.45l-17.5-1.44c-1.96-.16-2.88.06-3.64,1.57-.67,1.33-.3,2.77-1.27,2.69-.45-.04-.68-.39-.62-1.02.07-.82.45-2.35.65-4.65.28-3.37.2-5.54.27-6.43.04-.56.25-.8.7-.76.93.07.57,1.24.83,2.53.29,1.48,1.29,2.01,3.4,2.18l17.54,1.44Z"/>
      </g>
      <path class="cls-4" d="m0,317.65c0,91.17,74.18,165.35,165.35,165.35s165.35-74.18,165.35-165.35-74.18-165.35-165.35-165.35S0,226.48,0,317.65Zm2.91,0c0-89.57,72.87-162.44,162.44-162.44s162.44,72.87,162.44,162.44-72.87,162.44-162.44,162.44S2.91,407.22,2.91,317.65Z"/>
    </g>
  </g>
  <g id="Layer_2" data-name="Layer 2">
    <path class="cls-4" d="m222.96,86.7l-.28,1.04c3.36,2.44,4.82,6.23,4.13,10.73-1.01.26-1.94.79-2.67,1.57-2.97-2.08-4.56-5.35-4.18-8.32-.08-.02-1.05-.3-1.05-.3l-5.33,17.68s.77.23.85.26c1.78-2.57,4.7-4.17,8.12-4.16.08.49.19.98.4,1.44.11.25.25.47.39.69-3.21,5.8-6.64,8.86-13.56,7.62-8.3-1.49-10.4-8.45-8.5-12.12,1.38-2.68,2.83-3.03,4.44-2.46,1.6.57,2.57,2.86,1.16,6.24,3.1-.62,6.33-4.72,6.68-8.37s-2.78-6.14-5.4-6.39c-2.48-.24-4.74.57-6.81,3.18,3.51-7.2,4.54-11.69.55-17.62-5.4,3.37-6.64,8.14-5.54,17.01-2.47-7.83-9.13-8.27-12.05-3.5s.7,10.43,2.75,12.34c-1.01-3.69.51-6.5,3.87-5.78,3.36.72,3.4,7.73-.92,11.33-4.33,3.6-10.92,3.02-15.22-.17-3.6-2.67-5.13-5.61-6.01-10.95.52-.42.97-.92,1.32-1.49,4.69.91,8.14,3.91,8.65,7.57.1,0,1.01.03,1.01.03l.68-20.21s-1.14-.05-1.24-.06c-.73,3.53-4.15,6.59-8.68,7.43-.4-.95-1.06-1.75-1.87-2.36,1.08-4.94,4.25-8.61,8.21-9.29v-1.15h-23.33v1.15c3.96.68,7.13,4.34,8.21,9.29-.81.61-1.47,1.41-1.87,2.36-4.54-.84-7.95-3.9-8.68-7.43-.1,0-1.24.06-1.24.06l.68,20.21s.91-.03,1.01-.03c.51-3.66,3.96-6.66,8.65-7.57.35.57.8,1.07,1.32,1.49-.87,5.35-2.41,8.29-6.01,10.95-4.3,3.19-10.89,3.77-15.22.17-4.33-3.6-4.28-10.61-.92-11.33,3.36-.72,4.88,2.09,3.87,5.78,2.04-1.91,5.67-7.58,2.75-12.34-2.92-4.77-9.58-4.33-12.05,3.5,1.1-8.87-.14-13.64-5.54-17.01-3.99,5.93-2.97,10.41.55,17.62-2.06-2.61-4.33-3.43-6.81-3.18-2.62.26-5.75,2.75-5.4,6.39.35,3.65,3.58,7.75,6.68,8.37-1.41-3.38-.44-5.67,1.16-6.24,1.6-.57,3.05-.22,4.44,2.46,1.9,3.68-.2,10.63-8.5,12.12-6.92,1.25-10.35-1.81-13.56-7.62.14-.22.28-.44.39-.69.2-.46.32-.95.4-1.44,3.43-.01,6.34,1.59,8.12,4.16.08-.02.85-.26.85-.26l-5.33-17.68s-.97.28-1.05.3c.38,2.97-1.21,6.24-4.18,8.32-.73-.77-1.66-1.31-2.67-1.57-.68-4.5.77-8.29,4.13-10.73l-.28-1.04-15.92,5.09.23.82c2.46.37,4.42,1.06,7.22,6.93-.59.51-1.08,1.15-1.41,1.89-.58,1.32-.65,2.84-.19,4.26.79,2.44,2.94,4.08,5.34,4.08.07,0,.14-.01.21-.02,1.33,3.93,2.83,8.76,4.57,14.76l-2.91,5.87-.97,1.96,1.84,1.17,5.58,3.55c.42,1.54.86,3.14,1.3,4.78-.78.4-1.55.81-2.29,1.24-3.69,2.11-4.97,6.82-2.86,10.51s6.82,4.97,10.51,2.86c11.24-6.43,29-10.28,47.52-10.28s36.28,3.84,47.52,10.28c1.21.69,2.52,1.02,3.82,1.02,2.67,0,5.27-1.39,6.69-3.88,2.11-3.69.83-8.4-2.86-10.51-.74-.42-1.51-.83-2.29-1.24.45-1.65.88-3.24,1.3-4.78l5.58-3.55,1.84-1.17-.97-1.96-2.91-5.87c1.74-6,3.24-10.83,4.57-14.76.07,0,.14.02.21.02,2.4,0,4.55-1.64,5.34-4.08.46-1.42.4-2.94-.19-4.26-.33-.74-.82-1.38-1.41-1.89,2.79-5.87,4.76-6.57,7.22-6.93l.23-.82-15.92-5.09Zm-119.4,20.73c-1.68.54-3.53-.54-4.14-2.41-.61-1.88.25-3.84,1.93-4.39,1.68-.54,3.53.54,4.14,2.41s-.25,3.84-1.93,4.39Zm80.29,14.54c.67-3.5,5.27-5.56,10.26-4.6,4.99.96,8.5,4.58,7.82,8.08-.67,3.5-5.27,5.56-10.26,4.6-4.99-.96-8.5-4.58-7.82-8.08Zm-18.68-32.36c1.97,0,3.58,1.6,3.58,3.58s-1.6,3.58-3.58,3.58-3.58-1.6-3.58-3.58,1.6-3.58,3.58-3.58Zm0,23.12l11.55,8.14-11.56,8.16-11.55-8.14,11.56-8.16Zm-28.94,4.64c4.99-.96,9.59,1.1,10.26,4.6.67,3.5-2.83,7.11-7.82,8.08-4.99.96-9.59-1.1-10.26-4.6-.67-3.5,2.83-7.11,7.82-8.08Zm-29.52,14.09l3.95-7.98,10.8,3.85-7.26,8.9-7.49-4.77Zm111.76,17.21c5.91-1.77,4.94,7.19-.49,4.21,2.38,3.41-3.66,4.89-8.9-2.67.55,3.52-2.93,2.36-6.95-2.7,1.95,4.27-4.21,1.71-7.38-1.59,1.28,2.8-1.95,2.8-8.72-2.07,3.78,4.39-3.44,1.98-8.14-.82,3.35,3.35-2.84,2.29-8.14-.46,3.41,3.35-4.15,2.26-8.96-.37,3.05,3.48-2.99,3.23-8.78.43,5.43,3.9-2.8,3.05-7.74,1.16,3.96,2.93-2.19,3.6-9.21,1.95,4.82,2.56-1.95,3.54-8.29,2.13,4.51,2.19-.3,3.05-5.49,2.32,2.8,2.68-1.46,3.35-5.98,2.8,4.63,3.72-8.78,3.84-2.87-.67-5.37,2.01-5.43-3.54-.73-4.69-7.68,1.1,2.65-6.8,2.16-2.59,3.75-5.94,8.57-6.25,6.68-2.74,5.67-6.13,8.78-6.07,6.28-1.74,6.16-6.04,9.94-6.04,7.13-1.65,6.71-6.52,12.07-5.98,9.69-1.95,7.62-5.91,10.43-4.63,8.17-1.28,7.32-5.46,12.44-3.54,8.41-.18,10.88-5.91,12.71-3.17,9.57-.3,10-4.69,12.29-2.23,9.21.18,11.4-3.6,13.87-.82,8.84,1.52,11.16-3.02,12.71-.37,8.9,1.89,9.76-2.44,11.95.12,7.47,2.23,8.35-1.77,10.94.58,7.53,2.71,10.3,0,11.65,2.93,6.71,4.94Zm5.15-17.21l-7.49,4.77-7.26-8.9,10.8-3.85,3.95,7.98Zm7.3-26.45c-.61,1.88-2.46,2.96-4.14,2.41-1.68-.54-2.54-2.51-1.93-4.39s2.46-2.96,4.14-2.41c1.68.54,2.54,2.51,1.93,4.39Z"/>
    <path class="cls-4" d="m169.23,133.7c-1.55,1.47-6.57,3.28-11.62,5,5.28.74,9.95,2.83,11.2,4.43.04-1.71-1.27-3.24-2.57-3.93,3.1.68,4.84.25,6.91-.49-1.9-1.12-3.72-1.83-6.9-1.22,1.34-.66,2.85-2.07,2.96-3.78Z"/>
    <path class="cls-4" d="m142.01,135.64c-1.18,1.78-5.66,4.68-10.2,7.48,5.31-.47,10.33.52,11.91,1.79-.34-1.68-1.96-2.87-3.39-3.25,3.17-.04,4.77-.84,6.63-2.04-2.11-.67-4.03-.95-6.99.36,1.16-.95,2.31-2.66,2.04-4.35Z"/>
    <path class="cls-4" d="m119.12,141.41c-.75,2-4.46,5.83-8.25,9.59,5.07-1.65,9.42-2.1,11.89-1.55-.71-1.56-2.43-1.74-3.91-1.79,3.08-.75,4.46-1.89,6-3.48-2.2-.18-4.14-.01-6.73,1.93.92-1.18,1.66-3.11,1.01-4.7Z"/>
    <path class="cls-4" d="m218.42,145.57c-2.04.64-7.29-.22-12.58-.89,4.42,2.98,7.82,6.47,8.25,8.45.79-1.52.16-3.03-.71-4.22,2.49,1.97,4.24,2.35,6.43,2.59-1.22-1.84-2.54-3.27-5.66-4.12,1.5,0,3.42-.32,4.27-1.81Z"/>
    <path class="cls-4" d="m196.15,137.14c-1.84,1.08-7.14,1.72-12.44,2.26,4.98,1.91,9.05,5,9.92,6.83.43-1.66-.5-3.44-1.62-4.41,2.87,1.36,4.65,1.33,6.85,1.07-1.6-1.52-3.21-2.62-6.44-2.74,1.46-.34,3.25-1.38,3.74-3.02Z"/>
    <path class="cls-4" d="m218.75,85.88c-.7-1.66-2.9-7.05-7.5-10.24-4.51-3.14-8.81-3.69-12.56-4.02-3.47-.31-5.67-1.43-8.11-5.24s-6.92-5.85-11.43-5.85c-2.07,0-2.44,1.86-.06,1.83,2.65-.03,7.62,1.28,9.88,5.7,1.7,3.34,2.41,6.52,9.91,6.25,5.31-.19,14.08.61,18.57,12.56.61,1.62,2.35,1.49,1.31-.98Z"/>
    <path class="cls-4" d="m111.6,85.88c.7-1.66,2.9-7.05,7.5-10.24s8.81-3.69,12.56-4.02c3.47-.31,5.67-1.43,8.11-5.24s6.92-5.85,11.43-5.85c2.07,0,2.44,1.86.06,1.83-2.65-.03-7.62,1.28-9.88,5.7-1.7,3.34-2.41,6.52-9.91,6.25-5.31-.19-14.08.61-18.57,12.56-.61,1.62-2.35,1.49-1.31-.98Z"/>
    <path class="cls-4" d="m180.28,50.81c17.62,4.43,32.49,16.42,41.42,32.6l5.75,1.84c-9.1-19.17-25.77-33.56-45.83-38.73-.49,1.33-.94,2.77-1.34,4.29Z"/>
    <path class="cls-4" d="m108.66,83.41c8.93-16.17,23.79-28.17,41.42-32.6-.41-1.52-.85-2.95-1.34-4.29-20.06,5.17-36.73,19.56-45.83,38.73l5.75-1.84Z"/>
    <path class="cls-4" d="m189.26,39.92c0,1.75-1.42,3.17-3.17,3.17s-3.17-1.42-3.17-3.17,1.42-3.17,3.17-3.17,3.17,1.42,3.17,3.17Zm4.71-.31c-1.75,0-3.17,1.42-3.17,3.17s1.42,3.17,3.17,3.17,3.17-1.42,3.17-3.17-1.42-3.17-3.17-3.17Zm7.5,3.73c-1.75,0-3.17,1.42-3.17,3.17s1.42,3.17,3.17,3.17,3.17-1.42,3.17-3.17-1.42-3.17-3.17-3.17Zm7.05,4.55c-1.75,0-3.17,1.42-3.17,3.17s1.42,3.17,3.17,3.17,3.17-1.42,3.17-3.17-1.42-3.17-3.17-3.17Zm6.51,5.28c-1.75,0-3.17,1.42-3.17,3.17s1.42,3.17,3.17,3.17,3.17-1.42,3.17-3.17-1.42-3.17-3.17-3.17Zm5.92,5.94c-1.75,0-3.17,1.42-3.17,3.17s1.42,3.17,3.17,3.17,3.17-1.42,3.17-3.17-1.42-3.17-3.17-3.17Zm5.28,6.54c-1.75,0-3.17,1.42-3.17,3.17s1.42,3.17,3.17,3.17,3.17-1.42,3.17-3.17-1.42-3.17-3.17-3.17Zm4.59,7.06c-1.75,0-3.17,1.42-3.17,3.17s1.42,3.17,3.17,3.17,3.17-1.42,3.17-3.17-1.42-3.17-3.17-3.17Zm3.83,7.45c-1.75,0-3.17,1.42-3.17,3.17s1.42,3.17,3.17,3.17,3.17-1.42,3.17-3.17-1.42-3.17-3.17-3.17Z"/>
    <path class="cls-4" d="m147.42,39.92c0,1.75-1.42,3.17-3.17,3.17s-3.17-1.42-3.17-3.17,1.42-3.17,3.17-3.17,3.17,1.42,3.17,3.17Zm-11.05-.31c-1.75,0-3.17,1.42-3.17,3.17s1.42,3.17,3.17,3.17,3.17-1.42,3.17-3.17-1.42-3.17-3.17-3.17Zm-7.5,3.73c-1.75,0-3.17,1.42-3.17,3.17s1.42,3.17,3.17,3.17,3.17-1.42,3.17-3.17-1.42-3.17-3.17-3.17Zm-7.05,4.55c-1.75,0-3.17,1.42-3.17,3.17s1.42,3.17,3.17,3.17,3.17-1.42,3.17-3.17-1.42-3.17-3.17-3.17Zm-6.51,5.28c-1.75,0-3.17,1.42-3.17,3.17s1.42,3.17,3.17,3.17,3.17-1.42,3.17-3.17-1.42-3.17-3.17-3.17Zm-5.92,5.94c-1.75,0-3.17,1.42-3.17,3.17s1.42,3.17,3.17,3.17,3.17-1.42,3.17-3.17-1.42-3.17-3.17-3.17Zm-5.28,6.54c-1.75,0-3.17,1.42-3.17,3.17s1.42,3.17,3.17,3.17,3.17-1.42,3.17-3.17-1.42-3.17-3.17-3.17Zm-4.59,7.06c-1.75,0-3.17,1.42-3.17,3.17s1.42,3.17,3.17,3.17,3.17-1.42,3.17-3.17-1.42-3.17-3.17-3.17Zm-3.83,7.45c-1.75,0-3.17,1.42-3.17,3.17s1.42,3.17,3.17,3.17,3.17-1.42,3.17-3.17-1.42-3.17-3.17-3.17Z"/>
    <path class="cls-4" d="m174.86,75.41c0-13.38,1.93-24.96,5.43-32.61.49-1.06.02-2.32-1.04-2.8-.29-.13-.58-.19-.88-.19-.8,0-1.57.46-1.92,1.24-5.04,11.04-5.81,26.24-5.81,34.37h4.23Z"/>
    <path class="cls-4" d="m155.49,75.41h4.23c0-8.13-.77-23.33-5.81-34.37-.35-.78-1.12-1.24-1.92-1.24-.29,0-.59.06-.88.19-1.06.49-1.53,1.74-1.04,2.8,3.5,7.66,5.42,19.24,5.43,32.61Z"/>
    <circle class="cls-4" cx="165.17" cy="71.92" r="3.43"/>
    <circle class="cls-4" cx="165.17" cy="63.31" r="3.43"/>
    <circle class="cls-4" cx="165.17" cy="54.7" r="3.43"/>
    <path class="cls-4" d="m165.17,49.15c.88,0,1.69.22,2.43.58.62-.62,1-1.48,1-2.43,0-1.9-1.54-3.43-3.43-3.43s-3.43,1.54-3.43,3.43c0,.95.38,1.81,1,2.43.74-.36,1.55-.58,2.43-.58Z"/>
    <path class="cls-4" d="m165.17,41.76c1,0,1.92.29,2.73.75.44-.58.7-1.28.7-2.06,0-1.9-1.54-3.43-3.43-3.43s-3.43,1.54-3.43,3.43c0,.78.27,1.49.7,2.06.81-.46,1.73-.75,2.73-.75Z"/>
    <path class="cls-4" d="m169.14,13.95c3.45.9,5.97,2.92,6.42,5.35h1.12V3.72h-1.12c-.45,2.43-2.98,4.45-6.42,5.35-.38-.62-.9-1.14-1.53-1.53.9-3.45,2.92-5.97,5.35-6.42V0h-15.58v1.12c2.43.45,4.45,2.98,5.35,6.42-.62.38-1.14.9-1.53,1.53-3.45-.9-5.97-2.92-6.42-5.35h-1.12v15.58h1.12c.45-2.43,2.98-4.45,6.42-5.35.38.62.9,1.14,1.53,1.53-.9,3.45-2.92,5.97-5.35,6.42v1.12h5.57c-.26.2-.49.43-.7.69-4.73,1.28-8.21,5.59-8.21,10.72,0,4.59,2.78,8.53,6.75,10.23-1.05-1.09-1.7-2.58-1.7-4.21,0-2.86,1.99-5.26,4.65-5.9-3.01.13-5.68.67-7.62,1.46-.09-.51-.15-1.04-.15-1.58,0-.74.1-1.46.27-2.16,1.83-.73,4.28-1.23,7.02-1.39.03-2.93.16-5.63.36-7.87h3.09c.21,2.24.33,4.94.36,7.87,2.75.16,5.19.66,7.02,1.39.17.69.27,1.41.27,2.16,0,.54-.06,1.07-.15,1.58-1.94-.8-4.62-1.33-7.62-1.46,2.66.64,4.65,3.04,4.65,5.9,0,1.63-.65,3.12-1.7,4.21,3.97-1.7,6.75-5.64,6.75-10.23,0-5.13-3.48-9.44-8.21-10.72-.2-.26-.43-.49-.7-.69h5.57v-1.12c-2.43-.45-4.45-2.98-5.35-6.42.62-.38,1.14-.9,1.53-1.53Zm-3.97.31c-1.52,0-2.75-1.23-2.75-2.75s1.23-2.75,2.75-2.75,2.75,1.23,2.75,2.75-1.23,2.75-2.75,2.75Z"/>
  </g>
</svg>